<svg width="48" height="48" viewBox="0 0 48 48" fill="none" xmlns="http://www.w3.org/2000/svg">
<circle cx="24" cy="24" r="24" fill="#FF0000"/>
<path d="M34.7749 19.5625C33.4624 13.7875 28.4249 11.1875 23.9999 11.1875C23.9999 11.1875 23.9999 11.1875 23.9874 11.1875C19.5749 11.1875 14.5249 13.775 13.2124 19.55C11.7499 26 15.6999 31.4625 19.2749 34.9C20.5999 36.175 22.2999 36.8125 23.9999 36.8125C25.6999 36.8125 27.3999 36.175 28.7124 34.9C32.2874 31.4625 36.2374 26.0125 34.7749 19.5625ZM23.9999 25.825C21.8249 25.825 20.0624 24.0625 20.0624 21.8875C20.0624 19.7125 21.8249 17.95 23.9999 17.95C26.1749 17.95 27.9374 19.7125 27.9374 21.8875C27.9374 24.0625 26.1749 25.825 23.9999 25.825Z" fill="white"/>
</svg>
