<svg width="28" height="28" viewBox="0 0 28 28" fill="none" xmlns="http://www.w3.org/2000/svg">
<path d="M26.7467 12.32L24.9333 10.2133C24.5867 9.81333 24.3067 9.06666 24.3067 8.53333V6.26666C24.3067 4.85333 23.1467 3.69333 21.7333 3.69333H19.4667C18.9467 3.69333 18.1867 3.41333 17.7867 3.06666L15.68 1.25333C14.76 0.466663 13.2533 0.466663 12.32 1.25333L10.2267 3.08C9.82667 3.41333 9.06667 3.69333 8.54667 3.69333H6.24001C4.82667 3.69333 3.66667 4.85333 3.66667 6.26666V8.54666C3.66667 9.06666 3.38667 9.81333 3.05334 10.2133L1.25334 12.3333C0.480007 13.2533 0.480007 14.7467 1.25334 15.6667L3.05334 17.7867C3.38667 18.1867 3.66667 18.9333 3.66667 19.4533V21.7333C3.66667 23.1467 4.82667 24.3067 6.24001 24.3067H8.54667C9.06667 24.3067 9.82667 24.5867 10.2267 24.9333L12.3333 26.7467C13.2533 27.5333 14.76 27.5333 15.6933 26.7467L17.8 24.9333C18.2 24.5867 18.9467 24.3067 19.48 24.3067H21.7467C23.16 24.3067 24.32 23.1467 24.32 21.7333V19.4667C24.32 18.9467 24.6 18.1867 24.9467 17.7867L26.76 15.68C27.5333 14.76 27.5333 13.24 26.7467 12.32ZM19.5467 11.48L13.1067 17.92C12.92 18.1067 12.6667 18.2133 12.4 18.2133C12.1333 18.2133 11.88 18.1067 11.6933 17.92L8.46667 14.6933C8.08001 14.3067 8.08001 13.6667 8.46667 13.28C8.85334 12.8933 9.49334 12.8933 9.88001 13.28L12.4 15.8L18.1333 10.0667C18.52 9.68 19.16 9.68 19.5467 10.0667C19.9333 10.4533 19.9333 11.0933 19.5467 11.48Z" fill="#FF0000"/>
</svg>
