<svg width="84" height="18" viewBox="0 0 84 18" fill="none" xmlns="http://www.w3.org/2000/svg">
<path d="M7.54078 2.93921C7.79024 2.17145 8.87642 2.17145 9.12588 2.93921L10.0172 5.68237C10.1287 6.02572 10.4487 6.25819 10.8097 6.25819H13.6941C14.5013 6.25819 14.837 7.2912 14.1839 7.76571L11.8504 9.46107C11.5583 9.67328 11.4361 10.0494 11.5477 10.3928L12.439 13.1359C12.6885 13.9037 11.8097 14.5421 11.1566 14.0676L8.82315 12.3723C8.53108 12.1601 8.13558 12.1601 7.84351 12.3723L5.51004 14.0676C4.85694 14.5421 3.97821 13.9037 4.22767 13.1359L5.11898 10.3928C5.23054 10.0494 5.10832 9.67328 4.81625 9.46107L2.48278 7.76571C1.82968 7.2912 2.16533 6.25819 2.9726 6.25819H5.85693C6.21795 6.25819 6.53791 6.02573 6.64948 5.68237L7.54078 2.93921Z" fill="#FCB547"/>
<path d="M24.2078 2.93921C24.4572 2.17145 25.5434 2.17145 25.7929 2.93921L26.6842 5.68237C26.7957 6.02572 27.1157 6.25819 27.4767 6.25819H30.3611C31.1683 6.25819 31.504 7.2912 30.8509 7.76571L28.5174 9.46107C28.2253 9.67328 28.1031 10.0494 28.2147 10.3928L29.106 13.1359C29.3554 13.9037 28.4767 14.5421 27.8236 14.0676L25.4901 12.3723C25.1981 12.1601 24.8026 12.1601 24.5105 12.3723L22.177 14.0676C21.5239 14.5421 20.6452 13.9037 20.8947 13.1359L21.786 10.3928C21.8975 10.0494 21.7753 9.67328 21.4832 9.46107L19.1498 7.76571C18.4967 7.2912 18.8323 6.25819 19.6396 6.25819H22.5239C22.8849 6.25819 23.2049 6.02573 23.3165 5.68237L24.2078 2.93921Z" fill="#FCB547"/>
<path d="M40.8743 2.93921C41.1237 2.17145 42.2099 2.17145 42.4594 2.93921L43.3507 5.68237C43.4622 6.02572 43.7822 6.25819 44.1432 6.25819H47.0276C47.8348 6.25819 48.1705 7.2912 47.5174 7.76571L45.1839 9.46107C44.8918 9.67328 44.7696 10.0494 44.8812 10.3928L45.7725 13.1359C46.0219 13.9037 45.1432 14.5421 44.4901 14.0676L42.1566 12.3723C41.8646 12.1601 41.4691 12.1601 41.177 12.3723L38.8435 14.0676C38.1904 14.5421 37.3117 13.9037 37.5612 13.1359L38.4525 10.3928C38.564 10.0494 38.4418 9.67328 38.1497 9.46107L35.8163 7.76571C35.1632 7.2912 35.4988 6.25819 36.3061 6.25819H39.1904C39.5514 6.25819 39.8714 6.02573 39.983 5.68237L40.8743 2.93921Z" fill="#FCB547"/>
<path d="M57.5408 2.93921C57.7902 2.17145 58.8764 2.17145 59.1259 2.93921L60.0172 5.68237C60.1287 6.02572 60.4487 6.25819 60.8097 6.25819H63.6941C64.5013 6.25819 64.837 7.2912 64.1839 7.76571L61.8504 9.46107C61.5583 9.67328 61.4361 10.0494 61.5477 10.3928L62.439 13.1359C62.6885 13.9037 61.8097 14.5421 61.1566 14.0676L58.8232 12.3723C58.5311 12.1601 58.1356 12.1601 57.8435 12.3723L55.51 14.0676C54.8569 14.5421 53.9782 13.9037 54.2277 13.1359L55.119 10.3928C55.2305 10.0494 55.1083 9.67328 54.8163 9.46107L52.4828 7.76571C51.8297 7.2912 52.1653 6.25819 52.9726 6.25819H55.8569C56.218 6.25819 56.5379 6.02573 56.6495 5.68237L57.5408 2.93921Z" fill="#FCB547"/>
<path d="M74.2073 2.93921C74.4567 2.17145 75.5429 2.17145 75.7924 2.93921L76.6837 5.68237C76.7953 6.02572 77.1152 6.25819 77.4762 6.25819H80.3606C81.1678 6.25819 81.5035 7.2912 80.8504 7.76571L78.5169 9.46107C78.2248 9.67328 78.1026 10.0494 78.2142 10.3928L79.1055 13.1359C79.355 13.9037 78.4762 14.5421 77.8231 14.0676L75.4897 12.3723C75.1976 12.1601 74.8021 12.1601 74.51 12.3723L72.1765 14.0676C71.5234 14.5421 70.6447 13.9037 70.8942 13.1359L71.7855 10.3928C71.897 10.0494 71.7748 9.67328 71.4828 9.46107L69.1493 7.76571C68.4962 7.2912 68.8318 6.25819 69.6391 6.25819H72.5234C72.8845 6.25819 73.2044 6.02573 73.316 5.68237L74.2073 2.93921Z" fill="#FCB547"/>
</svg>
